# xmcd
#
# Track frame offsets:
# 150
# 24700
# 39729
# 58010
# 81201
# 98767
# 120301
# 150168
# 175109
# 198351
#
# Disc length: 2973 seconds
#
#
# Revision: 1
# Processed by: cddbd v1.5.1PL0 Copyright (c) Steve Scherf et al.
# Submitted via: FreeRIP 2.92 
#
DISCID=720b9b0a
DTITLE=Raymond Froggatt - There goes that song
DYEAR=1998
DGENRE=Country
TTITLE0=My only love
TTITLE1=No heartbreaks after all
TTITLE2=Young and the old
TTITLE3=Letter from New Orleans
TTITLE4=Unlock the door
TTITLE5=A wish and a dream
TTITLE6=Take me home
TTITLE7=Angel
TTITLE8=Don't you feel so sad
TTITLE9=There goes that song again
EXTD=
EXTT0=
EXTT1=
EXTT2=
EXTT3=
EXTT4=
EXTT5=
EXTT6=
EXTT7=
EXTT8=
EXTT9=
PLAYORDER=
